<?xml version="1.0" encoding="utf-8"?>
<!-- Generator: Adobe Illustrator 21.0.0, SVG Export Plug-In . SVG Version: 6.00 Build 0)  -->
<svg version="1.1" id="Layer_1" xmlns="http://www.w3.org/2000/svg" xmlns:xlink="http://www.w3.org/1999/xlink" x="0px" y="0px"
	 width="72px" height="72px" viewBox="0 0 72 72" enable-background="new 0 0 72 72" xml:space="preserve">
<path fill="#828282" d="M71.5,35.8C71.5,16,55.5,0,35.8,0S0,16,0,35.8c0,10.4,4.4,19.8,11.6,26.4l0,0l1.2,1c0.1,0,0.1,0.1,0.3,0.1
	c0.6,0.5,1.3,1,1.9,1.4c0.3,0.1,0.4,0.3,0.6,0.4c0.6,0.5,1.4,0.9,2.1,1.3c0.1,0.1,0.3,0.1,0.5,0.3c0.8,0.4,1.6,0.9,2.5,1.3
	c0,0,0.1,0,0.1,0.1c2.7,1.3,5.6,2.2,8.7,2.7c0.1,0,0.1,0,0.3,0c0.9,0.1,1.9,0.3,2.9,0.4c0.1,0,0.3,0,0.4,0c0.8,0.3,1.7,0.3,2.7,0.3
	c0.9,0,2,0,2.9-0.1c0.1,0,0.3,0,0.4,0c0.9-0.1,2-0.3,2.9-0.4c0.1,0,0.1,0,0.3,0c3-0.5,5.8-1.4,8.6-2.7c0.1,0,0.3-0.1,0.3-0.1
	c0.8-0.4,1.6-0.8,2.3-1.2c0.1-0.1,0.4-0.3,0.5-0.4c0.6-0.4,1.4-0.8,2.1-1.3c0.3-0.1,0.5-0.4,0.6-0.5c0.5-0.4,1.2-0.8,1.7-1.3
	c0.1-0.1,0.3-0.1,0.4-0.3l1.2-1l0,0C66.9,55.6,71.5,46.2,71.5,35.8z M2.6,35.8c0-18.3,14.8-33.2,33.2-33.2s33.2,14.8,33.2,33.2
	c0,9.9-4.3,18.7-11.2,24.8c-0.4-0.3-0.8-0.5-1.2-0.7l-11-5.5c-1-0.5-1.6-1.4-1.6-2.6V48c0.3-0.3,0.5-0.7,0.8-1
	c1.4-1.9,2.6-4.3,3.4-6.6c1.7-0.8,2.7-2.5,2.7-4.3v-4.5c0-1.2-0.4-2.2-1.2-3.1v-6.2c0.1-0.6,0.3-4.4-2.5-7.7c-2.3-2.6-6.2-4-11.4-4
	s-9.1,1.4-11.6,4.2c-2.7,3.1-2.5,6.9-2.5,7.7v6.1c-0.8,0.9-1.2,2-1.2,3.1V36c0,1.4,0.7,2.7,1.7,3.6c1,4.2,3.3,7.3,4,8.3v3.8
	c0,1-0.5,2.1-1.6,2.6l-10.1,5.5c-0.4,0.1-0.6,0.4-1,0.7C6.9,54.3,2.6,45.5,2.6,35.8z"/>
</svg>
